<?xml version="1.0" standalone="no"?><!DOCTYPE svg PUBLIC "-//W3C//DTD SVG 1.1//EN" "http://www.w3.org/Graphics/SVG/1.1/DTD/svg11.dtd"><svg t="1780385142511" class="icon" viewBox="0 0 1024 1024" version="1.1" xmlns="http://www.w3.org/2000/svg" p-id="11461" xmlns:xlink="http://www.w3.org/1999/xlink" width="256" height="256"><path d="M512 944C273.6 944 80 750.4 80 512S273.6 80 512 80s432 193.6 432 432-193.6 432-432 432z m0-800c-203.2 0-368 164.8-368 368s164.8 368 368 368 368-164.8 368-368-164.8-368-368-368z" p-id="11462"></path><path d="M672 550.4H544v-64h128c17.6 0 32-14.4 32-32s-14.4-32-32-32h-89.6l88-88c12.8-12.8 12.8-32 0-44.8-12.8-12.8-32-12.8-44.8 0L512 403.2 398.4 289.6c-12.8-12.8-32-12.8-44.8 0-12.8 12.8-12.8 32 0 44.8l88 88H352c-17.6 0-32 14.4-32 32s14.4 32 32 32h128v64H352c-17.6 0-32 14.4-32 32s14.4 32 32 32h128v128c0 17.6 14.4 32 32 32s32-14.4 32-32v-128h128c17.6 0 32-14.4 32-32s-14.4-32-32-32z" p-id="11463"></path></svg>
